<?xml version="1.0" encoding="UTF-8"?>
<svg id="Camada_2" data-name="Camada 2" xmlns="http://www.w3.org/2000/svg" viewBox="0 0 1600 1200">
  <defs>
    <style>
      .cls-1 {
        fill: #ff7300;
      }

      .cls-1, .cls-2 {
        stroke-width: 0px;
      }

      .cls-2 {
        fill: #fff;
      }
    </style>
  </defs>
  <path class="cls-1" d="M652.99,464.56v270.87c0,2.37,1.92,4.3,4.3,4.3h96.09c2.49,0,4.46-2.11,4.29-4.6l-9.99-140.66c-.18-2.49,1.79-4.6,4.29-4.6h76.75c2.26,0,4.13-1.75,4.29-4l8.38-121.01c.17-2.48-1.8-4.59-4.29-4.59h-179.8c-2.37,0-4.3,1.92-4.3,4.3Z"/>
  <path class="cls-1" d="M947.01,464.56v50.63c0,2.37-1.92,4.3-4.3,4.3h-82.59c-2.49,0-4.46-2.11-4.29-4.6l3.6-50.63c.16-2.25,2.03-3.99,4.29-3.99h78.99c2.37,0,4.3,1.92,4.3,4.3Z"/>
  <path class="cls-1" d="M858.23,537.51h84.49c2.37,0,4.3,1.92,4.3,4.3v193.63c0,2.37-1.92,4.3-4.3,4.3h-98.25c-2.49,0-4.46-2.11-4.29-4.6l13.76-193.63c.16-2.25,2.03-3.99,4.29-3.99Z"/>
  <circle class="cls-2" cx="850.51" cy="589.9" r="42.36"/>
  <rect class="cls-2" x="774.23" y="521.09" width="15.41" height="152.67" rx="4.3" ry="4.3" transform="translate(-195.39 482.62) rotate(-30.68)"/>
  <path class="cls-2" d="M711.66,570.25l3.95-61.81c.14-2.26,2.02-4.02,4.29-4.02l61.93-.02c3.89,0,5.78,4.76,2.94,7.43l-65.89,61.83c-2.84,2.67-7.48.48-7.23-3.41Z"/>
</svg>