<?xml version="1.0" encoding="UTF-8"?>
<svg id="Camada_2" data-name="Camada 2" xmlns="http://www.w3.org/2000/svg" viewBox="0 0 1600 1200">
  <defs>
    <style>
      .cls-1 {
        fill: #000;
      }

      .cls-1, .cls-2, .cls-3 {
        stroke-width: 0px;
      }

      .cls-2 {
        fill: #ff7300;
      }

      .cls-3 {
        fill: #fff;
      }
    </style>
  </defs>
  <g>
    <g>
      <path class="cls-2" d="M869.31,563.11h-147.08c-1.84,0-3.33,1.49-3.33,3.33v271.89c0,1.84,1.49,3.33,3.33,3.33h147.08c1.84,0,3.33-1.49,3.33-3.33v-271.89c0-1.84-1.49-3.33-3.33-3.33ZM796.34,764.36c-5.2.32-9.52-3.79-9.53-8.92-.01.02.03-11.67.03-11.67.08-17.99.43-40.03.78-58.15.12-5.78.43-17.48.62-23.26.63-9.69,14.42-9.71,15.07,0,.7,22.18,1.09,47.63,1.31,69.78l.09,11.63.03,11.28c.01,4.79-3.6,9.01-8.38,9.31Z"/>
      <path class="cls-2" d="M634.23,686.57c-1.83.02-3.3,1.52-3.29,3.35.1,17.36.36,65.18.36,65.18.03,4.95-3.96,8.98-8.91,9.01-4.95.03-8.98-3.96-9.01-8.91.02-.34.41-76.85.42-77.17.03-4.66,3.82-8.41,8.48-8.38.02-.03,55.8.69,75.09.92,1.85.02,3.37-1.47,3.37-3.33v-100.8c0-1.84-1.49-3.33-3.33-3.33h-147.08c-1.84,0-3.33,1.49-3.33,3.33v271.89c0,1.84,1.49,3.33,3.33,3.33h147.08c1.84,0,3.33-1.49,3.33-3.33v-149.2c0-1.85-1.52-3.35-3.37-3.33l-63.15.77Z"/>
      <path class="cls-2" d="M1040.95,563.11h-62.52c-1.86,0-3.35,1.51-3.33,3.37.81,60.91,1.21,127.88,1.26,187.98,0,4.95-4,8.96-8.95,8.97-4.95,0-8.96-4-8.97-8.95,0,0,.03-24.94.03-24.94.14-45.68.52-103.86,1.05-149.54,0,0,.1-6.9.19-13.51.03-1.86-1.47-3.37-3.33-3.37h-62.52c-1.84,0-3.33,1.49-3.33,3.33v271.89c0,1.84,1.49,3.33,3.33,3.33h147.08c1.84,0,3.33-1.49,3.33-3.33v-271.89c0-1.84-1.49-3.33-3.33-3.33Z"/>
    </g>
    <g>
      <path class="cls-2" d="M547.01,268.42v273.54c0,1.84,1.49,3.33,3.33,3.33h98.37c1.93,0,3.46-1.64,3.32-3.56l-10.17-143.13c-.14-1.93,1.39-3.56,3.32-3.56h78.92c1.75,0,3.2-1.35,3.32-3.1l8.54-123.28c.13-1.92-1.39-3.56-3.32-3.56h-182.3c-1.84,0-3.33,1.49-3.33,3.33Z"/>
      <path class="cls-2" d="M841.81,268.42v52.73c0,1.84-1.49,3.33-3.33,3.33h-84.84c-1.93,0-3.46-1.64-3.32-3.57l3.75-52.73c.12-1.74,1.57-3.09,3.32-3.09h81.09c1.84,0,3.33,1.49,3.33,3.33Z"/>
      <path class="cls-2" d="M751.88,342.53h86.6c1.84,0,3.33,1.49,3.33,3.33v196.1c0,1.84-1.49,3.33-3.33,3.33h-100.54c-1.93,0-3.46-1.64-3.32-3.57l13.94-196.1c.12-1.74,1.57-3.09,3.32-3.09Z"/>
      <circle class="cls-3" cx="745.05" cy="395.06" r="42.47"/>
      <rect class="cls-3" x="670.33" y="326.07" width="11.94" height="153.08" rx="3.33" ry="3.33" transform="translate(-110.77 401.45) rotate(-30.68)"/>
      <path class="cls-3" d="M605.68,377.83l4.18-65.36c.11-1.75,1.57-3.12,3.32-3.12l65.49-.02c3.02,0,4.48,3.69,2.28,5.76l-69.67,65.38c-2.2,2.06-5.79.37-5.6-2.64Z"/>
      <path class="cls-2" d="M1046.69,271.49c0-3.29-2.66-5.96-5.95-5.97-12.67-.05-48.52-.16-65.56-.27-3.31-.02-6,2.66-6,5.96,0,0,4.69,105.66,4.69,105.86,0,4.95-4.01,8.96-8.96,8.96-4.26,0-7.82-2.98-8.73-6.97,0,0-.01,0-.01,0l-21.9-109.01c-.54-2.81-2.99-4.85-5.86-4.85l-65.3-.08c-1.84,0-3.33,1.49-3.33,3.33v273.54c0,1.84,1.49,3.33,3.33,3.33h68.32c3.3,0,5.97-2.67,5.97-5.97,0,0-5.34-92.22-5.34-92.48,0-4.95,4.01-8.96,8.96-8.96,4.18,0,7.67,2.86,8.67,6.73,0,0,22.5,96,22.5,96,.61,2.73,3.03,4.68,5.83,4.68h62.69c3.3,0,5.97-2.67,5.97-5.97v-267.85Z"/>
    </g>
  </g>
  <g>
    <path class="cls-1" d="M565.37,922.04c-2.54,0-4.84-.42-6.9-1.26-2.06-.84-3.83-2.05-5.3-3.64-1.47-1.58-2.6-3.48-3.39-5.69-.79-2.21-1.19-4.67-1.19-7.37s.4-5.2,1.19-7.4c.79-2.19,1.92-4.07,3.39-5.64,1.47-1.57,3.23-2.77,5.3-3.61,2.06-.84,4.36-1.26,6.9-1.26s4.84.42,6.9,1.26c2.06.84,3.83,2.04,5.3,3.59,1.47,1.55,2.6,3.42,3.39,5.62.79,2.19,1.19,4.66,1.19,7.4s-.4,5.21-1.19,7.42c-.79,2.21-1.92,4.11-3.39,5.69-1.47,1.58-3.23,2.8-5.3,3.64-2.06.84-4.36,1.26-6.9,1.26ZM565.37,916.6c2.14,0,3.97-.49,5.47-1.48,1.5-.99,2.66-2.43,3.46-4.31.81-1.88,1.21-4.12,1.21-6.73s-.4-4.89-1.19-6.76c-.79-1.86-1.95-3.28-3.46-4.26-1.52-.97-3.35-1.46-5.49-1.46s-3.93.49-5.44,1.46c-1.52.97-2.68,2.39-3.49,4.26-.81,1.86-1.21,4.12-1.21,6.76s.4,4.85,1.21,6.73c.81,1.88,1.97,3.32,3.49,4.31,1.52.99,3.33,1.48,5.44,1.48Z"/>
    <path class="cls-1" d="M613.97,922.04c-1.81,0-3.56-.16-5.22-.47-1.67-.31-3.2-.77-4.6-1.36-1.4-.59-2.65-1.3-3.74-2.13l1.93-5c1.09.76,2.23,1.41,3.44,1.95,1.2.54,2.49.96,3.86,1.24,1.37.28,2.81.42,4.33.42,2.61,0,4.5-.44,5.69-1.31,1.19-.87,1.78-2,1.78-3.39,0-.76-.18-1.41-.54-1.95-.36-.54-.96-1.01-1.78-1.41-.82-.4-1.91-.73-3.27-.99l-5.44-1.14c-3.14-.66-5.47-1.77-7-3.34-1.53-1.57-2.3-3.64-2.3-6.21,0-2.18.58-4.07,1.73-5.69,1.15-1.62,2.75-2.87,4.8-3.76,2.05-.89,4.4-1.34,7.08-1.34,1.58,0,3.11.16,4.58.47,1.47.31,2.82.78,4.06,1.39,1.24.61,2.32,1.34,3.24,2.2l-1.93,4.75c-1.39-1.15-2.9-2.02-4.55-2.6-1.65-.58-3.46-.87-5.44-.87-1.52,0-2.82.21-3.91.64-1.09.43-1.92,1.03-2.5,1.81-.58.78-.87,1.69-.87,2.75,0,1.19.4,2.14,1.19,2.85.79.71,2.14,1.26,4.06,1.66l5.39,1.14c3.27.69,5.7,1.78,7.3,3.27,1.6,1.48,2.4,3.46,2.4,5.94,0,2.08-.56,3.91-1.68,5.49-1.12,1.58-2.71,2.81-4.78,3.69-2.06.87-4.5,1.31-7.3,1.31Z"/>
    <path class="cls-1" d="M629.41,921.55l15.79-34.89h5.2l15.79,34.89h-6.43l-4.21-9.8,2.67,1.73h-20.88l2.67-1.73-4.16,9.8h-6.43ZM647.72,893.54l-6.93,16.48-1.29-1.58h16.53l-1.24,1.58-6.98-16.48h-.1Z"/>
    <path class="cls-1" d="M669.99,921.55v-34.89h15.24c3.66,0,6.5.8,8.51,2.4,2.01,1.6,3.02,3.82,3.02,6.66,0,2.11-.61,3.89-1.83,5.34-1.22,1.45-2.89,2.42-5,2.92v-.74c1.62.23,3,.73,4.16,1.48,1.15.76,2.04,1.73,2.65,2.92.61,1.19.92,2.57.92,4.16,0,2.05-.47,3.8-1.41,5.27-.94,1.47-2.3,2.58-4.08,3.34-1.78.76-3.91,1.14-6.38,1.14h-15.79ZM676.08,901.46h8.07c2.18,0,3.8-.42,4.87-1.26,1.07-.84,1.61-2.09,1.61-3.74s-.54-2.9-1.61-3.74c-1.07-.84-2.7-1.26-4.87-1.26h-8.07v10ZM676.08,916.75h8.91c.89,0,1.69-.07,2.4-.2.71-.13,1.32-.34,1.83-.62.51-.28.94-.64,1.29-1.06.35-.43.6-.92.77-1.48.16-.56.25-1.19.25-1.88s-.08-1.37-.25-1.93c-.17-.56-.42-1.05-.77-1.46-.35-.41-.78-.76-1.29-1.04-.51-.28-1.12-.49-1.83-.62-.71-.13-1.51-.2-2.4-.2h-8.91v10.49Z"/>
    <path class="cls-1" d="M719.68,922.04c-2.54,0-4.84-.42-6.9-1.26-2.06-.84-3.83-2.05-5.3-3.64-1.47-1.58-2.6-3.48-3.39-5.69-.79-2.21-1.19-4.67-1.19-7.37s.4-5.2,1.19-7.4c.79-2.19,1.92-4.07,3.39-5.64,1.47-1.57,3.23-2.77,5.3-3.61,2.06-.84,4.36-1.26,6.9-1.26s4.84.42,6.9,1.26c2.06.84,3.83,2.04,5.3,3.59,1.47,1.55,2.6,3.42,3.39,5.62.79,2.19,1.19,4.66,1.19,7.4s-.4,5.21-1.19,7.42c-.79,2.21-1.92,4.11-3.39,5.69-1.47,1.58-3.23,2.8-5.3,3.64-2.06.84-4.36,1.26-6.9,1.26ZM719.68,916.6c2.14,0,3.97-.49,5.47-1.48,1.5-.99,2.66-2.43,3.46-4.31.81-1.88,1.21-4.12,1.21-6.73s-.4-4.89-1.19-6.76c-.79-1.86-1.95-3.28-3.46-4.26-1.52-.97-3.35-1.46-5.49-1.46s-3.93.49-5.44,1.46c-1.52.97-2.68,2.39-3.49,4.26-.81,1.86-1.21,4.12-1.21,6.76s.4,4.85,1.21,6.73c.81,1.88,1.97,3.32,3.49,4.31,1.52.99,3.33,1.48,5.44,1.48Z"/>
    <path class="cls-1" d="M742.89,921.55v-34.89h15.14c3.83,0,6.78.92,8.86,2.75,2.08,1.83,3.12,4.4,3.12,7.7,0,2.15-.47,3.99-1.41,5.54-.94,1.55-2.3,2.74-4.08,3.56-1.78.83-3.94,1.24-6.48,1.24l.45-.74h1.63c1.35,0,2.53.33,3.54.99,1.01.66,1.89,1.7,2.65,3.12l5.84,10.74h-6.98l-6.04-11.14c-.4-.73-.84-1.29-1.34-1.71-.49-.41-1.06-.7-1.68-.87-.63-.16-1.35-.25-2.18-.25h-4.7v13.96h-6.33ZM749.22,902.89h7.72c2.28,0,4-.47,5.17-1.41,1.17-.94,1.76-2.35,1.76-4.23s-.59-3.24-1.76-4.18c-1.17-.94-2.9-1.41-5.17-1.41h-7.72v11.23Z"/>
    <path class="cls-1" d="M790.2,921.55v-34.89h12.97c3.89,0,7.2.68,9.92,2.03,2.72,1.35,4.8,3.32,6.24,5.91,1.44,2.59,2.15,5.75,2.15,9.48s-.72,6.9-2.15,9.5c-1.44,2.61-3.51,4.59-6.24,5.94-2.72,1.35-6.03,2.03-9.92,2.03h-12.97ZM796.54,916.3h6.24c4.06,0,7.08-1.01,9.08-3.04,2-2.03,2.99-5.09,2.99-9.18s-1.01-7.14-3.02-9.16c-2.01-2.01-5.03-3.02-9.06-3.02h-6.24v24.4Z"/>
    <path class="cls-1" d="M843.55,922.04c-2.54,0-4.84-.42-6.9-1.26-2.06-.84-3.83-2.05-5.3-3.64-1.47-1.58-2.6-3.48-3.39-5.69-.79-2.21-1.19-4.67-1.19-7.37s.4-5.2,1.19-7.4c.79-2.19,1.92-4.07,3.39-5.64,1.47-1.57,3.23-2.77,5.3-3.61,2.06-.84,4.36-1.26,6.9-1.26s4.84.42,6.9,1.26c2.06.84,3.83,2.04,5.3,3.59,1.47,1.55,2.6,3.42,3.39,5.62.79,2.19,1.19,4.66,1.19,7.4s-.4,5.21-1.19,7.42c-.79,2.21-1.92,4.11-3.39,5.69-1.47,1.58-3.23,2.8-5.3,3.64-2.06.84-4.36,1.26-6.9,1.26ZM843.55,916.6c2.14,0,3.97-.49,5.47-1.48,1.5-.99,2.66-2.43,3.46-4.31.81-1.88,1.21-4.12,1.21-6.73s-.4-4.89-1.19-6.76c-.79-1.86-1.95-3.28-3.46-4.26-1.52-.97-3.35-1.46-5.49-1.46s-3.93.49-5.44,1.46c-1.52.97-2.68,2.39-3.49,4.26-.81,1.86-1.21,4.12-1.21,6.76s.4,4.85,1.21,6.73c.81,1.88,1.97,3.32,3.49,4.31,1.52.99,3.33,1.48,5.44,1.48Z"/>
    <path class="cls-1" d="M880.12,921.55v-34.89h15.24c3.66,0,6.5.8,8.51,2.4,2.01,1.6,3.02,3.82,3.02,6.66,0,2.11-.61,3.89-1.83,5.34-1.22,1.45-2.89,2.42-5,2.92v-.74c1.62.23,3,.73,4.16,1.48,1.15.76,2.04,1.73,2.65,2.92.61,1.19.92,2.57.92,4.16,0,2.05-.47,3.8-1.41,5.27-.94,1.47-2.3,2.58-4.08,3.34-1.78.76-3.91,1.14-6.38,1.14h-15.79ZM886.21,901.46h8.07c2.18,0,3.8-.42,4.87-1.26,1.07-.84,1.61-2.09,1.61-3.74s-.54-2.9-1.61-3.74c-1.07-.84-2.7-1.26-4.87-1.26h-8.07v10ZM886.21,916.75h8.91c.89,0,1.69-.07,2.4-.2.71-.13,1.32-.34,1.83-.62.51-.28.94-.64,1.29-1.06.35-.43.6-.92.77-1.48.16-.56.25-1.19.25-1.88s-.08-1.37-.25-1.93c-.17-.56-.42-1.05-.77-1.46-.35-.41-.78-.76-1.29-1.04-.51-.28-1.12-.49-1.83-.62-.71-.13-1.51-.2-2.4-.2h-8.91v10.49Z"/>
    <path class="cls-1" d="M914.17,921.55v-34.89h15.14c3.83,0,6.78.92,8.86,2.75,2.08,1.83,3.12,4.4,3.12,7.7,0,2.15-.47,3.99-1.41,5.54-.94,1.55-2.3,2.74-4.08,3.56-1.78.83-3.94,1.24-6.48,1.24l.45-.74h1.63c1.35,0,2.53.33,3.54.99,1.01.66,1.89,1.7,2.65,3.12l5.84,10.74h-6.98l-6.04-11.14c-.4-.73-.84-1.29-1.34-1.71-.49-.41-1.06-.7-1.68-.87-.63-.16-1.35-.25-2.18-.25h-4.7v13.96h-6.33ZM920.5,902.89h7.72c2.28,0,4-.47,5.17-1.41,1.17-.94,1.76-2.35,1.76-4.23s-.59-3.24-1.76-4.18c-1.17-.94-2.9-1.41-5.17-1.41h-7.72v11.23Z"/>
    <path class="cls-1" d="M944.36,921.55l15.79-34.89h5.2l15.79,34.89h-6.43l-4.21-9.8,2.67,1.73h-20.88l2.67-1.73-4.16,9.8h-6.43ZM962.67,893.54l-6.93,16.48-1.29-1.58h16.53l-1.24,1.58-6.98-16.48h-.1Z"/>
    <path class="cls-1" d="M996.96,922.04c-1.81,0-3.56-.16-5.22-.47-1.67-.31-3.2-.77-4.6-1.36-1.4-.59-2.65-1.3-3.74-2.13l1.93-5c1.09.76,2.23,1.41,3.44,1.95,1.2.54,2.49.96,3.86,1.24,1.37.28,2.81.42,4.33.42,2.61,0,4.5-.44,5.69-1.31,1.19-.87,1.78-2,1.78-3.39,0-.76-.18-1.41-.54-1.95-.36-.54-.96-1.01-1.78-1.41-.82-.4-1.91-.73-3.27-.99l-5.44-1.14c-3.14-.66-5.47-1.77-7-3.34-1.53-1.57-2.3-3.64-2.3-6.21,0-2.18.58-4.07,1.73-5.69,1.15-1.62,2.75-2.87,4.8-3.76,2.05-.89,4.4-1.34,7.08-1.34,1.58,0,3.11.16,4.58.47,1.47.31,2.82.78,4.06,1.39,1.24.61,2.32,1.34,3.24,2.2l-1.93,4.75c-1.39-1.15-2.9-2.02-4.55-2.6-1.65-.58-3.46-.87-5.44-.87-1.52,0-2.82.21-3.91.64-1.09.43-1.92,1.03-2.5,1.81-.58.78-.87,1.69-.87,2.75,0,1.19.4,2.14,1.19,2.85.79.71,2.14,1.26,4.06,1.66l5.39,1.14c3.27.69,5.7,1.78,7.3,3.27,1.6,1.48,2.4,3.46,2.4,5.94,0,2.08-.56,3.91-1.68,5.49-1.12,1.58-2.71,2.81-4.78,3.69-2.06.87-4.5,1.31-7.3,1.31Z"/>
    <path class="cls-1" d="M1016.17,921.55v-34.89h6.33v34.89h-6.33Z"/>
    <path class="cls-1" d="M1030.07,921.55v-34.89h6.33v29.5h16.73v5.39h-23.06Z"/>
  </g>
</svg>